<svg class="vector" width="300px" height="300px" xmlns="http://www.w3.org/2000/svg" baseProfile="full" version="1.1" style="width: 300px; height: 300px; stroke: rgb(127, 127, 127); stroke-width: 15; fill: none; stroke-linecap: round;"><path d="M150,50 A100,100 0 0,1 250,150  M50,150 A0,30 0 0,1 50,180  L100,230  A0,20 0 0,1 100,250  M140,260 A0,20 0 0,1 140,280  M120,280 A0,-20 0 0,1 120,260  M140,210 A0,20 0 0,1 140,230  M100,140 A20,20 0 0,1 120,160  A-20,20 0 0,1 100,180  A-20,-20 0 0,1 80,160  A20,-20 0 0,1 100,140  Z  M50,150 A100,-100 0 0,1 150,50  M200,140 A20,20 0 0,1 220,160  A-20,20 0 0,1 200,180  A-20,-20 0 0,1 180,160  A20,-20 0 0,1 200,140  M250,150 A0,30 0 0,1 250,180  L200,230  A0,20 0 0,1 200,250  M180,260 A0,20 0 0,1 180,280  M160,260 A0,20 0 0,1 160,280  M160,210 A0,20 0 0,1 160,230  M100,150 A10,10 0 0,1 110,160  A-10,10 0 0,1 100,170  A-10,-10 0 0,1 90,160  A10,-10 0 0,1 100,150  M100,160 A0,0 0 0,1 100,160  M200,150 A10,10 0 0,1 210,160  A-10,10 0 0,1 200,170  A-10,-10 0 0,1 190,160  A10,-10 0 0,1 200,150  A0,10 0 0,1 200,160  M80,80 L250,160  "></path><g><path d="" transform="translate(300,0),scale(-1,1)"></path></g></svg>